<svg
  width="512"
  height="512"
  viewBox="0 0 512 512"
  fill="none"
  xmlns="http://www.w3.org/2000/svg"
>
  <g clip-path="url(#clip0_423_1160)">
    <rect width="512" height="512" />
    <circle cx="256" cy="256" r="256" fill="#050A0B" />
    <path
      d="M265.8 237.605L347.69 416.608H165L246.89 237.605C247.722 235.799 249.054 234.27 250.73 233.198C252.406 232.126 254.354 231.556 256.345 231.556C258.335 231.556 260.284 232.126 261.96 233.198C263.636 234.27 264.968 235.799 265.8 237.605V237.605Z"
      fill="white"
    />
    <path
      d="M256.337 209.86C288.11 209.86 313.867 184.148 313.867 152.43C313.867 120.712 288.11 95 256.337 95C224.564 95 198.807 120.712 198.807 152.43C198.807 184.148 224.564 209.86 256.337 209.86Z"
      fill="white"
    />
  </g>
  <defs>
    <clipPath id="clip0_423_1160">
      <rect width="512" height="512" />
    </clipPath>
  </defs>
</svg>
