<svg width="24" height="24" viewBox="0 0 24 24" fill="none" xmlns="http://www.w3.org/2000/svg">
<g clip-path="url(#clip0_676_35691)">
<path d="M3 3L21 3C21.2652 3 21.5196 3.10536 21.7071 3.29289C21.8946 3.48043 22 3.73478 22 4L22 20C22 20.2652 21.8946 20.5196 21.7071 20.7071C21.5196 20.8946 21.2652 21 21 21L3 21C2.73478 21 2.48043 20.8946 2.29289 20.7071C2.10536 20.5196 2 20.2652 2 20L2 4C2 3.73478 2.10536 3.48043 2.29289 3.29289C2.48043 3.10536 2.73478 3 3 3ZM20 7.238L12.072 14.338L4 7.216L4 19L20 19L20 7.238ZM4.511 5L12.061 11.662L19.502 5L4.511 5Z" fill="var(--Greyscale-900, #2b2f33)"/>
</g>
<defs>
<clipPath id="clip0_676_35691">
<rect width="24" height="24" fill="white"/>
</clipPath>
</defs>
</svg>
