<svg width="26" height="26" viewBox="0 0 26 26" fill="none" xmlns="http://www.w3.org/2000/svg">
<circle cx="13" cy="13" r="13" fill="#C1B4FF"/>
<path d="M8.27455 16.3956C8.35903 16.3109 8.47518 16.2615 8.59838 16.2615H19.7705C19.9746 16.2615 20.0767 16.5086 19.9324 16.6532L17.7254 18.8659C17.6409 18.9506 17.5248 19 17.4016 19H6.2295C6.02535 19 5.92327 18.753 6.06759 18.6083L8.27455 16.3956Z" fill="white"/>
<path d="M8.27458 8.1341C8.36258 8.04941 8.47874 8 8.59841 8H19.7705C19.9747 8 20.0767 8.24703 19.9324 8.39171L17.7255 10.6044C17.641 10.6891 17.5248 10.7385 17.4016 10.7385H6.22953C6.02538 10.7385 5.9233 10.4914 6.06762 10.3468L8.27458 8.1341Z" fill="white"/>
<path d="M17.7254 12.2377C17.6409 12.153 17.5248 12.1036 17.4016 12.1036H6.2295C6.02535 12.1036 5.92327 12.3507 6.06759 12.4954L8.27455 14.708C8.35903 14.7927 8.47518 14.8421 8.59838 14.8421H19.7705C19.9746 14.8421 20.0767 14.5951 19.9324 14.4504L17.7254 12.2377Z" fill="white"/>
</svg>
