<svg width="20" height="20" viewBox="0 0 20 20" fill="none" xmlns="http://www.w3.org/2000/svg">
<path d="M3.33329 2.5C2.41663 2.5 1.66663 3.25 1.66663 4.16667C1.66663 5.08333 2.41663 5.83333 3.33329 5.83333C4.24996 5.83333 4.99996 5.08333 4.99996 4.16667C4.99996 3.25 4.24996 2.5 3.33329 2.5ZM3.33329 14.1667C2.41663 14.1667 1.66663 14.9167 1.66663 15.8333C1.66663 16.75 2.41663 17.5 3.33329 17.5C4.24996 17.5 4.99996 16.75 4.99996 15.8333C4.99996 14.9167 4.24996 14.1667 3.33329 14.1667ZM3.33329 8.33333C2.41663 8.33333 1.66663 9.08333 1.66663 10C1.66663 10.9167 2.41663 11.6667 3.33329 11.6667C4.24996 11.6667 4.99996 10.9167 4.99996 10C4.99996 9.08333 4.24996 8.33333 3.33329 8.33333Z" fill="#A2A7AE"/>
<path d="M10 2.5C9.08337 2.5 8.33337 3.25 8.33337 4.16667C8.33337 5.08333 9.08337 5.83333 10 5.83333C10.9167 5.83333 11.6667 5.08333 11.6667 4.16667C11.6667 3.25 10.9167 2.5 10 2.5ZM10 14.1667C9.08337 14.1667 8.33337 14.9167 8.33337 15.8333C8.33337 16.75 9.08337 17.5 10 17.5C10.9167 17.5 11.6667 16.75 11.6667 15.8333C11.6667 14.9167 10.9167 14.1667 10 14.1667ZM10 8.33333C9.08337 8.33333 8.33337 9.08333 8.33337 10C8.33337 10.9167 9.08337 11.6667 10 11.6667C10.9167 11.6667 11.6667 10.9167 11.6667 10C11.6667 9.08333 10.9167 8.33333 10 8.33333Z" fill="#A2A7AE"/>
<path d="M16.6667 2.5C15.75 2.5 15 3.25 15 4.16667C15 5.08333 15.75 5.83333 16.6667 5.83333C17.5833 5.83333 18.3333 5.08333 18.3333 4.16667C18.3333 3.25 17.5833 2.5 16.6667 2.5ZM16.6667 14.1667C15.75 14.1667 15 14.9167 15 15.8333C15 16.75 15.75 17.5 16.6667 17.5C17.5833 17.5 18.3333 16.75 18.3333 15.8333C18.3333 14.9167 17.5833 14.1667 16.6667 14.1667ZM16.6667 8.33333C15.75 8.33333 15 9.08333 15 10C15 10.9167 15.75 11.6667 16.6667 11.6667C17.5833 11.6667 18.3333 10.9167 18.3333 10C18.3333 9.08333 17.5833 8.33333 16.6667 8.33333Z" fill="#A2A7AE"/>
</svg>
