<svg width="24" height="24" viewBox="0 0 24 24" fill="none" xmlns="http://www.w3.org/2000/svg">
<g clip-path="url(#clip0_676_35719)">
<path d="M10.758 11.8275L18.607 3.97852L20.021 5.39252L18.607 6.80752L21.081 9.28152L19.667 10.6965L17.192 8.22152L15.778 9.63552L17.899 11.7565L16.485 13.1715L14.364 11.0495L12.172 13.2415C12.8525 14.2755 13.1254 15.5251 12.938 16.7486C12.7505 17.9722 12.1161 19.0828 11.1573 19.8657C10.1985 20.6485 8.98352 21.0481 7.74721 20.9872C6.51091 20.9262 5.34112 20.409 4.46404 19.5355C3.58507 18.6598 3.06307 17.4886 2.99949 16.2495C2.93592 15.0104 3.33531 13.792 4.12005 12.8309C4.90479 11.8699 6.01881 11.235 7.2456 11.0495C8.47239 10.8641 9.72431 11.1414 10.758 11.8275ZM10.121 18.1205C10.4124 17.845 10.6455 17.5138 10.8066 17.1466C10.9678 16.7795 11.0537 16.3837 11.0592 15.9827C11.0648 15.5818 10.99 15.1838 10.8391 14.8123C10.6882 14.4408 10.4644 14.1032 10.1808 13.8197C9.89731 13.5362 9.5598 13.3123 9.18828 13.1615C8.81676 13.0106 8.41876 12.9357 8.01781 12.9413C7.61686 12.9469 7.2211 13.0328 6.85392 13.1939C6.48674 13.3551 6.15559 13.5882 5.88004 13.8795C5.33356 14.4453 5.03118 15.2031 5.03802 15.9897C5.04485 16.7763 5.36036 17.5287 5.91658 18.085C6.47281 18.6412 7.22524 18.9567 8.01183 18.9635C8.79842 18.9704 9.55623 18.668 10.122 18.1215L10.121 18.1205Z" fill="#4C48FF"/>
</g>
<defs>
<clipPath id="clip0_676_35719">
<rect width="24" height="24" fill="white"/>
</clipPath>
</defs>
</svg>
