<svg width="180" height="48" viewBox="0 0 180 48" fill="none" xmlns="http://www.w3.org/2000/svg">
<path d="M161.746 15.2968L168.167 32.9749L174.627 15.2968L174.715 15.0543H179.172L179.701 15.0688L179.507 15.5538L167.862 45.3083L167.58 45.2016L167.614 45.2162L167.862 45.3083C167.532 46.0794 166.984 46.739 166.281 47.2095C165.577 47.6799 164.758 47.9418 163.909 47.9612H158.749V43.9067H163.754L165.849 38.6881L156.721 15.5393L156.527 15.0591H161.664L161.751 15.3016L161.746 15.2968ZM50.3474 31.1707C50.3474 32.5093 50.7742 33.586 51.5259 34.3183C52.2728 35.0555 53.3737 35.492 54.7754 35.492C57.0403 35.492 58.6747 34.75 59.7563 33.5375C60.8427 32.3201 61.3956 30.5935 61.3956 28.5614V15.0591H66.0079V39.0664H61.6235V36.1031C59.8921 38.4796 57.3459 39.6048 54.2273 39.6048C51.1088 39.6048 48.8827 38.6881 47.5489 37.0925C46.2201 35.4968 45.7302 33.2659 45.7302 30.7342V15.0543H50.3474V31.1707ZM144.849 14.5159C148.302 14.5159 151.11 15.7818 153.035 17.9934C154.961 20.2049 155.994 23.3477 155.994 27.0773C156.004 27.4944 155.989 27.9164 155.945 28.3335L155.907 28.6536H138.272C138.515 30.6323 139.184 32.3056 140.241 33.5132C141.362 34.7839 142.938 35.5405 144.985 35.5405C147.831 35.5405 149.985 33.9837 151.032 31.1416L151.12 30.8991H155.873L155.751 31.355C155.072 33.8915 153.768 35.9527 151.925 37.3835C150.082 38.8142 147.725 39.5902 144.985 39.5902C141.536 39.5902 138.655 38.3583 136.647 36.1613C134.64 33.9643 133.519 30.8069 133.519 27.0725C133.519 23.338 134.601 20.2001 136.575 17.9837C138.553 15.7672 141.396 14.5111 144.849 14.5111V14.5159ZM99.6132 14.5159C102.79 14.5159 104.958 15.4277 106.292 17.0282C107.62 18.6239 108.11 20.8548 108.11 23.3865V39.0616H103.493V22.9452C103.493 21.6066 103.066 20.5299 102.315 19.7975C101.568 19.0604 100.467 18.6239 99.0652 18.6239C96.8002 18.6239 95.1658 19.361 94.0843 20.5784C92.9979 21.7957 92.445 23.5272 92.445 25.5593V39.0616H87.8327V15.0543H92.217V18.0176C93.9485 15.6411 96.4947 14.5159 99.6132 14.5159ZM38.528 10.4517C38.5474 11.8727 38.368 12.9349 38.0382 13.7594C37.8636 14.2152 37.6114 14.642 37.3058 15.0252H42.5632V19.1379H37.6987V34.9585H42.6311V39.0567H36.1419C35.3319 39.0567 34.5559 38.7366 33.9788 38.1692C33.4065 37.6017 33.0815 36.8354 33.0815 36.04V19.1428H28.8281V16.2668L29.1094 16.1989C31.772 15.5829 32.9991 14.2977 33.5762 13.1337C33.9594 12.3141 34.1485 11.4168 34.1194 10.5147V8.92395H38.5232V10.4614L38.528 10.4517ZM75.2325 19.0167C77.0076 16.519 79.3647 15.0591 82.2213 15.0591H84.5008V19.4289H81.7169C79.772 19.4289 78.2055 20.0546 77.0949 21.3689C75.9891 22.6833 75.3246 24.7396 75.3246 27.6642V39.0567H70.6638V15.0543H75.2325V19.0119V19.0167ZM116.84 39.0519H112.272V8.91425H116.84V39.0519ZM134.897 15.1173L122.777 27.0676L134.887 39.0131L128.771 38.9985L119.925 30.2734C119.062 29.4247 118.577 28.2704 118.577 27.0676C118.577 25.8648 119.062 24.7105 119.925 23.8618L128.795 15.1173H134.897ZM144.839 18.5269C144.019 18.5075 143.205 18.653 142.443 18.9634C141.687 19.2737 141.003 19.7345 140.435 20.3165C139.436 21.3592 138.757 22.8239 138.432 24.5117H151.11C150.756 22.6736 150.048 21.2137 149.044 20.2049C148.496 19.6569 147.841 19.2252 147.114 18.9391C146.391 18.653 145.615 18.5123 144.834 18.5317L144.839 18.5269Z" fill="black" style="fill:black;fill-opacity:1;"/>
<path d="M8.71052 21.6405C8.89967 21.6405 9.08397 21.6938 9.24401 21.7957C9.40406 21.8975 9.53016 22.043 9.60776 22.2128L17.4162 39.0906H0L7.80843 22.2128C7.88603 22.043 8.01698 21.8975 8.17702 21.7957C8.33707 21.6938 8.52137 21.6405 8.71052 21.6405ZM8.70567 8.76385C11.7369 8.76385 14.191 11.1888 14.191 14.1764C14.191 17.1688 11.7369 19.5938 8.70567 19.5938C5.67445 19.5938 3.22037 17.1688 3.22037 14.1764C3.22037 11.184 5.67445 8.76385 8.70567 8.76385Z" fill="black" style="fill:black;fill-opacity:1;"/>
</svg>
