<svg width="512" height="512" viewBox="0 0 512 512" fill="none" xmlns="http://www.w3.org/2000/svg">
<mask id="mask0_906_38" style="mask-type:luminance" maskUnits="userSpaceOnUse" x="0" y="0" width="512" height="512">
<path d="M512 0H0V512H512V0Z" fill="white"/>
</mask>
<g mask="url(#mask0_906_38)">
<path d="M256 512C397.385 512 512 397.385 512 256C512 114.615 397.385 0 256 0C114.615 0 0 114.615 0 256C0 397.385 114.615 512 256 512Z" fill="white"/>
<path d="M265.8 237.605L347.69 416.608H165L246.89 237.605C247.722 235.799 249.054 234.27 250.73 233.198C252.406 232.126 254.354 231.556 256.345 231.556C258.335 231.556 260.284 232.126 261.96 233.198C263.636 234.27 264.968 235.799 265.8 237.605Z" fill="black"/>
<path d="M256.337 209.86C288.11 209.86 313.867 184.148 313.867 152.43C313.867 120.712 288.11 95 256.337 95C224.564 95 198.807 120.712 198.807 152.43C198.807 184.148 224.564 209.86 256.337 209.86Z" fill="black"/>
</g>
</svg>
