<svg width="67" height="63" viewBox="0 0 67 63" fill="none" xmlns="http://www.w3.org/2000/svg">
<path fill-rule="evenodd" clip-rule="evenodd" d="M29.8907 5.67266H19.5877C19.0357 5.67266 18.5877 6.12066 18.5877 6.67266V12.4057L12.5998 15.9717C12.2968 16.1527 12.1118 16.4787 12.1118 16.8317V25.4727H1.24475C0.692751 25.4727 0.244751 25.9207 0.244751 26.4727V38.2387H2.24475V32.0367L27.5218 47.7447L52.7978 32.0367V60.4057H2.24475V41.0277H0.244751V61.4057C0.244751 61.9587 0.692751 62.4057 1.24475 62.4057H53.7978C54.3498 62.4057 54.7978 61.9587 54.7978 61.4057V27.1157L64.6637 21.2387V50.7647H57.2238V52.7647H65.6637C66.2158 52.7647 66.6637 52.3167 66.6637 51.7647V16.8317C66.6637 16.4787 66.4787 16.1527 66.1757 15.9717L60.1878 12.4057V6.67266C60.1878 6.12066 59.7397 5.67266 59.1878 5.67266H48.8838L39.8997 0.321664C39.5837 0.133664 39.1907 0.133664 38.8757 0.321664L29.8907 5.67266ZM6.18275 56.3907H18.3727V54.3907H6.18275V56.3907ZM6.18275 51.4287H13.2778V49.4287H6.18275V51.4287ZM14.1118 25.4727H21.2188L14.1118 21.2387V25.4727ZM20.5877 22.7687L25.1278 25.4727H53.6478L58.1878 22.7687V7.67266H20.5877V22.7687Z" fill="black"/>
</svg>
