<svg width="58" height="59" viewBox="0 0 58 59" fill="none" xmlns="http://www.w3.org/2000/svg">
<path d="M16.9166 7.14648H11.4791C10.1973 7.14648 8.96789 7.65571 8.06146 8.56213C7.15504 9.46856 6.64581 10.6979 6.64581 11.9798V17.4173M51.3541 17.4173V11.9798C51.3541 10.6979 50.8449 9.46856 49.9385 8.56213C49.0321 7.65571 47.8027 7.14648 46.5208 7.14648H41.0833M41.0833 51.8548H46.5208C47.8027 51.8548 49.0321 51.3456 49.9385 50.4392C50.8449 49.5327 51.3541 48.3034 51.3541 47.0215V41.584M6.64581 41.584V47.0215C6.64581 48.3034 7.15504 49.5327 8.06146 50.4392C8.96789 51.3456 10.1973 51.8548 11.4791 51.8548H16.9166M19.6729 24.7434V20.4382M38.3271 24.7434V20.4382M26.1302 34.7871H27.5657C28.3268 34.7871 29.0567 34.4848 29.5949 33.9466C30.1331 33.4084 30.4355 32.6784 30.4355 31.9173V20.4382M37.6094 39.4972C35.27 42.5978 31.6982 43.3965 29 43.3965C26.3018 43.3965 22.7299 42.599 20.3906 39.4972" stroke="#4C48FF" stroke-width="3" stroke-linecap="round" stroke-linejoin="round"/>
</svg>
