<svg width="44" height="49" viewBox="0 0 44 49" fill="none" xmlns="http://www.w3.org/2000/svg">
<path d="M22.0603 6.31536C26.3297 6.31536 30.3575 7.23209 34.1436 9.06553C37.9297 10.899 41.0915 13.5468 43.629 17.0091C43.911 17.3716 44.002 17.6938 43.9021 17.9758C43.8022 18.2577 43.6306 18.4994 43.3874 18.7008C43.1441 18.9022 42.8621 18.9932 42.5415 18.9739C42.2209 18.9545 41.939 18.7829 41.6957 18.4591C39.4804 15.3174 36.6312 12.9113 33.1479 11.2405C29.6647 9.56981 25.9688 8.73364 22.0603 8.73203C18.1517 8.73042 14.4864 9.56659 11.0644 11.2405C7.64243 12.9145 4.80285 15.3207 2.54568 18.4591C2.30401 18.8216 2.02207 19.023 1.69985 19.0633C1.37763 19.1036 1.09568 19.023 0.854015 18.8216C0.57207 18.6202 0.400487 18.3689 0.339265 18.0676C0.278042 17.7663 0.369071 17.4538 0.612348 17.1299C3.10957 13.7063 6.24157 11.048 10.0083 9.15495C13.7751 7.26189 17.7924 6.31536 22.0603 6.31536ZM22.0603 11.9945C27.4978 11.9945 32.17 13.807 36.0769 17.432C39.9839 21.057 41.9373 25.548 41.9373 30.9049C41.9373 32.9188 41.2228 34.6008 39.7938 35.9509C38.3647 37.3011 36.6223 37.9753 34.5665 37.9737C32.5107 37.9721 30.749 37.2978 29.2813 35.9509C27.8135 34.6041 27.0781 32.9221 27.0749 30.9049C27.0749 29.5758 26.5818 28.4577 25.5958 27.5506C24.6098 26.6436 23.4313 26.1908 22.0603 26.1924C20.6892 26.1941 19.5107 26.6476 18.5247 27.553C17.5387 28.4585 17.0457 29.5758 17.0457 30.9049C17.0457 34.8119 18.2041 38.0744 20.5208 40.6924C22.8376 43.3105 25.8279 45.1431 29.4915 46.1904C29.854 46.3112 30.0957 46.5126 30.2165 46.7945C30.3373 47.0765 30.3575 47.3786 30.2769 47.7008C30.1964 47.9827 30.0353 48.2244 29.7936 48.4258C29.5519 48.6272 29.2498 48.6876 28.8874 48.607C24.6985 47.5598 21.2748 45.475 18.6165 42.3527C15.9582 39.2304 14.629 35.4144 14.629 30.9049C14.629 28.8911 15.354 27.1994 16.804 25.8299C18.254 24.4605 20.0061 23.7758 22.0603 23.7758C24.1144 23.7758 25.8665 24.4605 27.3165 25.8299C28.7665 27.1994 29.4915 28.8911 29.4915 30.9049C29.4915 32.2341 29.995 33.3522 31.0019 34.2593C32.0089 35.1663 33.1971 35.6191 34.5665 35.6174C35.936 35.6158 37.104 35.1631 38.0707 34.2593C39.0373 33.3554 39.5207 32.2373 39.5207 30.9049C39.5207 26.2327 37.8089 22.3056 34.3853 19.1237C30.9617 15.9418 26.8735 14.3508 22.1207 14.3508C17.3679 14.3508 13.2797 15.9418 9.8561 19.1237C6.43249 22.3056 4.72068 26.2126 4.72068 30.8445C4.72068 31.8112 4.81171 33.0195 4.99376 34.4695C5.17582 35.9195 5.6084 37.6112 6.29151 39.5445C6.41235 39.907 6.40268 40.2293 6.26251 40.5112C6.12235 40.7931 5.89035 40.9945 5.56651 41.1154C5.24268 41.2362 4.93093 41.2265 4.63127 41.0864C4.3316 40.9462 4.11974 40.7142 3.99568 40.3904C3.39152 38.8195 2.95893 37.2592 2.69793 35.7093C2.43693 34.1594 2.30563 32.5579 2.30401 30.9049C2.30401 25.548 4.24782 21.057 8.13543 17.432C12.023 13.807 16.6647 11.9945 22.0603 11.9945ZM22.0603 0.394531C24.638 0.394531 27.1554 0.706281 29.6123 1.32978C32.0693 1.95328 34.4457 2.84986 36.7415 4.01953C37.104 4.22092 37.3159 4.46259 37.3771 4.74453C37.4383 5.02648 37.4077 5.30842 37.2853 5.59036C37.1628 5.87231 36.9614 6.09384 36.6811 6.25495C36.4008 6.41606 36.0584 6.39592 35.654 6.19453C33.5193 5.10703 31.3137 4.27167 29.0372 3.68845C26.7607 3.10523 24.435 2.81281 22.0603 2.8112C19.7242 2.8112 17.4283 3.08348 15.1728 3.62803C12.9172 4.17259 10.7623 5.02809 8.70818 6.19453C8.38596 6.39592 8.06374 6.44667 7.74151 6.34678C7.41929 6.24689 7.17763 6.03503 7.01652 5.7112C6.8554 5.38736 6.81513 5.09575 6.89568 4.83636C6.97624 4.57697 7.17763 4.34498 7.49985 4.14036C9.7554 2.93203 12.1117 2.00564 14.5686 1.3612C17.0255 0.716753 19.5228 0.394531 22.0603 0.394531ZM22.0603 17.8549C25.8061 17.8549 29.0283 19.114 31.7269 21.6322C34.4255 24.1504 35.7749 27.2413 35.7749 30.9049C35.7749 31.2674 35.6645 31.5599 35.4438 31.7822C35.223 32.0045 34.9306 32.1149 34.5665 32.1133C34.2443 32.1133 33.9623 32.0029 33.7207 31.7822C33.479 31.5615 33.3582 31.2691 33.3582 30.9049C33.3582 27.8841 32.2401 25.3571 30.0038 23.3239C27.7676 21.2906 25.1198 20.2732 22.0603 20.2716C19.0008 20.27 16.373 21.2874 14.1771 23.3239C11.9812 25.3603 10.8832 27.8873 10.8832 30.9049C10.8832 34.1674 11.4471 36.9369 12.5748 39.2134C13.7026 41.4899 15.354 43.7753 17.529 46.0695C17.7707 46.3112 17.8915 46.5931 17.8915 46.9154C17.8915 47.2376 17.7707 47.5195 17.529 47.7612C17.2873 48.0029 17.0054 48.1237 16.6832 48.1237C16.361 48.1237 16.079 48.0029 15.8373 47.7612C13.461 45.264 11.6388 42.7168 10.3708 40.1197C9.1029 37.5226 8.46813 34.451 8.46651 30.9049C8.46651 27.2397 9.79568 24.1479 12.454 21.6298C15.1123 19.1116 18.3144 17.8533 22.0603 17.8549ZM21.9998 29.6966C22.3623 29.6966 22.6548 29.8174 22.8771 30.0591C23.0994 30.3008 23.2098 30.5827 23.2082 30.9049C23.2082 33.9258 24.2957 36.4029 26.4707 38.3362C28.6457 40.2695 31.1832 41.2362 34.0832 41.2362C34.3248 41.2362 34.6672 41.2161 35.1103 41.1758C35.5533 41.1355 36.0165 41.0751 36.4998 40.9945C36.8624 40.914 37.1749 40.9647 37.4375 41.1468C37.7001 41.3288 37.8709 41.6003 37.9498 41.9612C38.0304 42.2834 37.97 42.5654 37.7686 42.807C37.5672 43.0487 37.3054 43.2098 36.9832 43.2904C36.2582 43.4917 35.6242 43.6029 35.0813 43.6239C34.5383 43.6448 34.2056 43.6545 34.0832 43.6529C30.4985 43.6529 27.3866 42.4445 24.7476 40.0279C22.1086 37.6112 20.7899 34.5702 20.7915 30.9049C20.7915 30.5827 20.9027 30.3008 21.125 30.0591C21.3473 29.8174 21.639 29.6966 21.9998 29.6966Z" fill="#DB383E"/>
</svg>
