<svg width="58" height="59" viewBox="0 0 58 59" fill="none" xmlns="http://www.w3.org/2000/svg">
<path d="M29.0604 11.3154C33.3298 11.3154 37.3576 12.2321 41.1437 14.0655C44.9298 15.899 48.0916 18.5468 50.6291 22.0091C50.9111 22.3716 51.0021 22.6938 50.9022 22.9758C50.8023 23.2577 50.6307 23.4994 50.3875 23.7008C50.1442 23.9022 49.8622 23.9932 49.5416 23.9739C49.221 23.9545 48.9391 23.7829 48.6958 23.4591C46.4805 20.3174 43.6313 17.9113 40.1481 16.2405C36.6648 14.5698 32.9689 13.7336 29.0604 13.732C25.1518 13.7304 21.4866 14.5666 18.0646 16.2405C14.6426 17.9145 11.803 20.3207 9.5458 23.4591C9.30414 23.8216 9.02219 24.023 8.69997 24.0633C8.37775 24.1036 8.0958 24.023 7.85414 23.8216C7.57219 23.6202 7.40061 23.3689 7.33939 23.0676C7.27816 22.7663 7.36919 22.4538 7.61247 22.1299C10.1097 18.7063 13.2417 16.048 17.0085 14.1549C20.7752 12.2619 24.7926 11.3154 29.0604 11.3154ZM29.0604 16.9945C34.4979 16.9945 39.1701 18.807 43.0771 22.432C46.984 26.057 48.9375 30.548 48.9375 35.9049C48.9375 37.9188 48.2229 39.6008 46.7939 40.9509C45.3648 42.3011 43.6224 42.9753 41.5666 42.9737C39.5109 42.9721 37.7491 42.2978 36.2814 40.9509C34.8137 39.6041 34.0782 37.9221 34.075 35.9049C34.075 34.5758 33.582 33.4577 32.596 32.5506C31.61 31.6436 30.4314 31.1908 29.0604 31.1924C27.6893 31.1941 26.5108 31.6476 25.5248 32.553C24.5388 33.4585 24.0458 34.5758 24.0458 35.9049C24.0458 39.8119 25.2042 43.0744 27.521 45.6924C29.8377 48.3105 32.828 50.1431 36.4916 51.1904C36.8541 51.3112 37.0958 51.5126 37.2166 51.7945C37.3375 52.0765 37.3576 52.3786 37.2771 52.7008C37.1965 52.9827 37.0354 53.2244 36.7937 53.4258C36.5521 53.6272 36.25 53.6876 35.8875 53.607C31.6986 52.5598 28.275 50.475 25.6166 47.3527C22.9583 44.2304 21.6291 40.4144 21.6291 35.9049C21.6291 33.8911 22.3541 32.1994 23.8041 30.8299C25.2541 29.4605 27.0062 28.7758 29.0604 28.7758C31.1146 28.7758 32.8666 29.4605 34.3166 30.8299C35.7666 32.1994 36.4916 33.8911 36.4916 35.9049C36.4916 37.2341 36.9951 38.3522 38.0021 39.2593C39.009 40.1663 40.1972 40.6191 41.5666 40.6174C42.9361 40.6158 44.1041 40.1631 45.0708 39.2593C46.0375 38.3554 46.5208 37.2373 46.5208 35.9049C46.5208 31.2327 44.809 27.3056 41.3854 24.1237C37.9618 20.9418 33.8736 19.3508 29.1208 19.3508C24.368 19.3508 20.2798 20.9418 16.8562 24.1237C13.4326 27.3056 11.7208 31.2126 11.7208 35.8445C11.7208 36.8112 11.8118 38.0195 11.9939 39.4695C12.1759 40.9195 12.6085 42.6112 13.2916 44.5445C13.4125 44.907 13.4028 45.2293 13.2626 45.5112C13.1225 45.7931 12.8905 45.9945 12.5666 46.1154C12.2428 46.2362 11.9311 46.2265 11.6314 46.0864C11.3317 45.9462 11.1199 45.7142 10.9958 45.3904C10.3916 43.8195 9.95905 42.2592 9.69805 40.7093C9.43705 39.1594 9.30575 37.5579 9.30414 35.9049C9.30414 30.548 11.2479 26.057 15.1356 22.432C19.0232 18.807 23.6648 16.9945 29.0604 16.9945ZM29.0604 5.39453C31.6382 5.39453 34.1555 5.70628 36.6125 6.32978C39.0694 6.95328 41.4458 7.84986 43.7416 9.01953C44.1041 9.22092 44.316 9.46259 44.3772 9.74453C44.4384 10.0265 44.4078 10.3084 44.2854 10.5904C44.1629 10.8723 43.9616 11.0938 43.6812 11.2549C43.4009 11.4161 43.0585 11.3959 42.6541 11.1945C40.5194 10.107 38.3138 9.27167 36.0373 8.68845C33.7608 8.10523 31.4352 7.81281 29.0604 7.8112C26.7243 7.8112 24.4284 8.08348 22.1729 8.62803C19.9173 9.17259 17.7625 10.0281 15.7083 11.1945C15.3861 11.3959 15.0639 11.4467 14.7416 11.3468C14.4194 11.2469 14.1777 11.035 14.0166 10.7112C13.8555 10.3874 13.8152 10.0958 13.8958 9.83636C13.9764 9.57697 14.1777 9.34498 14.5 9.14036C16.7555 7.93203 19.1118 7.00564 21.5687 6.3612C24.0257 5.71675 26.5229 5.39453 29.0604 5.39453ZM29.0604 22.8549C32.8062 22.8549 36.0284 24.114 38.7271 26.6322C41.4257 29.1504 42.775 32.2413 42.775 35.9049C42.775 36.2674 42.6646 36.5599 42.4439 36.7822C42.2232 37.0045 41.9308 37.1149 41.5666 37.1133C41.2444 37.1133 40.9625 37.0029 40.7208 36.7822C40.4791 36.5615 40.3583 36.2691 40.3583 35.9049C40.3583 32.8841 39.2402 30.3571 37.004 28.3239C34.7677 26.2906 32.1199 25.2732 29.0604 25.2716C26.0009 25.27 23.3732 26.2874 21.1772 28.3239C18.9813 30.3603 17.8833 32.8873 17.8833 35.9049C17.8833 39.1674 18.4472 41.9369 19.575 44.2134C20.7027 46.4899 22.3541 48.7753 24.5291 51.0695C24.7708 51.3112 24.8916 51.5931 24.8916 51.9154C24.8916 52.2376 24.7708 52.5195 24.5291 52.7612C24.2875 53.0029 24.0055 53.1237 23.6833 53.1237C23.3611 53.1237 23.0791 53.0029 22.8375 52.7612C20.4611 50.264 18.6389 47.7168 17.371 45.1197C16.103 42.5226 15.4682 39.451 15.4666 35.9049C15.4666 32.2397 16.7958 29.1479 19.4541 26.6298C22.1125 24.1116 25.3146 22.8533 29.0604 22.8549ZM29 34.6966C29.3625 34.6966 29.6549 34.8174 29.8772 35.0591C30.0996 35.3008 30.2099 35.5827 30.2083 35.9049C30.2083 38.9258 31.2958 41.4029 33.4708 43.3362C35.6458 45.2695 38.1833 46.2362 41.0833 46.2362C41.325 46.2362 41.6673 46.2161 42.1104 46.1758C42.5534 46.1355 43.0166 46.0751 43.5 45.9945C43.8625 45.914 44.175 45.9647 44.4376 46.1468C44.7002 46.3288 44.871 46.6003 44.95 46.9612C45.0305 47.2834 44.9701 47.5654 44.7687 47.807C44.5673 48.0487 44.3055 48.2098 43.9833 48.2904C43.2583 48.4917 42.6243 48.6029 42.0814 48.6239C41.5384 48.6448 41.2057 48.6545 41.0833 48.6529C37.4986 48.6529 34.3867 47.4445 31.7477 45.0279C29.1087 42.6112 27.79 39.5702 27.7916 35.9049C27.7916 35.5827 27.9028 35.3008 28.1251 35.0591C28.3475 34.8174 28.6391 34.6966 29 34.6966Z" fill="#4C48FF"/>
</svg>
