<svg width="24" height="24" viewBox="0 0 24 24" fill="none" xmlns="http://www.w3.org/2000/svg">
<path d="M9 4L9 6L4 6L4 18L20 18L20 6L15 6L15 4L21 4C21.2652 4 21.5196 4.10536 21.7071 4.29289C21.8946 4.48043 22 4.73478 22 5L22 19C22 19.2652 21.8946 19.5196 21.7071 19.7071C21.5196 19.8946 21.2652 20 21 20L3 20C2.73478 20 2.48043 19.8946 2.29289 19.7071C2.10536 19.5196 2 19.2652 2 19L2 5C2 4.73478 2.10536 4.48043 2.29289 4.29289C2.48043 4.10536 2.73478 4 3 4L9 4ZM13 10L16 10L12 15L8 10L11 10L11 2L13 2L13 10Z" fill="#868C95"/>
</svg>
