<svg width="24" height="25" viewBox="0 0 24 25" fill="none" xmlns="http://www.w3.org/2000/svg">
<g clip-path="url(#clip0_369_37940)">
<path d="M12 1.5L20.217 3.326C20.4391 3.37536 20.6377 3.49897 20.78 3.6764C20.9224 3.85384 21 4.07452 21 4.302V14.289C20.9999 15.2767 20.756 16.2492 20.2899 17.12C19.8238 17.9908 19.1499 18.7331 18.328 19.281L12 23.5L5.672 19.281C4.85027 18.7332 4.17646 17.9911 3.71035 17.1205C3.24424 16.2498 3.00024 15.2776 3 14.29V4.302C3.00004 4.07452 3.07764 3.85384 3.21999 3.6764C3.36234 3.49897 3.56094 3.37536 3.783 3.326L12 1.5ZM12 3.549L5 5.104V14.289C5.00001 14.9475 5.16257 15.5957 5.47326 16.1763C5.78395 16.7568 6.23315 17.2517 6.781 17.617L12 21.097L17.219 17.617C17.7667 17.2518 18.2158 16.7571 18.5265 16.1767C18.8372 15.5964 18.9998 14.9483 19 14.29V5.104L12 3.55V3.549ZM12 7.5C12.4403 7.4998 12.8684 7.64492 13.2179 7.91286C13.5673 8.1808 13.8186 8.55657 13.9326 8.98187C14.0467 9.40718 14.0172 9.85824 13.8488 10.2651C13.6803 10.6719 13.3823 11.0118 13.001 11.232L13 15.5H11V11.232C10.6187 11.0119 10.3208 10.6721 10.1523 10.2653C9.98384 9.85857 9.95429 9.40761 10.0682 8.98236C10.1822 8.5571 10.4333 8.18133 10.7825 7.91332C11.1318 7.6453 11.5597 7.50002 12 7.5Z" fill="#868C95"/>
</g>
<defs>
<clipPath id="clip0_369_37940">
<rect width="24" height="24" fill="white" transform="translate(0 0.5)"/>
</clipPath>
</defs>
</svg>
