<svg width="24" height="25" viewBox="0 0 24 25" fill="none" xmlns="http://www.w3.org/2000/svg">
<path fill-rule="evenodd" clip-rule="evenodd" d="M19 10.5H18V9.5C18 8.58075 17.8189 7.6705 17.4672 6.82122C17.1154 5.97194 16.5998 5.20026 15.9497 4.55025C15.2997 3.90024 14.5281 3.38463 13.6788 3.03284C12.8295 2.68106 11.9193 2.5 11 2.5C10.0807 2.5 9.17049 2.68106 8.32122 3.03284C7.47194 3.38463 6.70026 3.90024 6.05025 4.55025C5.40024 5.20026 4.88463 5.97194 4.53284 6.82122C4.18106 7.6705 4 8.58075 4 9.5V10.5H3C2.73478 10.5 2.48043 10.6054 2.29289 10.7929C2.10536 10.9804 2 11.2348 2 11.5V21.5C2 21.7652 2.10536 22.0196 2.29289 22.2071C2.48043 22.3946 2.73478 22.5 3 22.5H12.5902C12.5488 22.4334 12.5093 22.3655 12.4719 22.2964C12.172 21.7425 12.0105 21.1267 12.0005 20.5H4V12.5H12H18H20V11.5C20 11.2348 19.8946 10.9804 19.7071 10.7929C19.5196 10.6054 19.2652 10.5 19 10.5ZM16 9.5V10.5H6V9.5C6 8.17392 6.52678 6.90215 7.46447 5.96447C8.40215 5.02678 9.67392 4.5 11 4.5C12.3261 4.5 13.5979 5.02678 14.5355 5.96447C15.4732 6.90215 16 8.17392 16 9.5Z" fill="#868C95"/>
<path d="M14 14.5H22V19.882C22 20.779 21.554 21.616 20.813 22.112L18 23.999L15.187 22.114C14.8212 21.8681 14.5216 21.536 14.3146 21.1469C14.1076 20.7578 13.9996 20.3237 14 19.883V14.5Z" fill="#868C95"/>
</svg>
