<svg width="24" height="25" viewBox="0 0 24 25" fill="none" xmlns="http://www.w3.org/2000/svg">
<g clip-path="url(#clip0_774_33920)">
<path d="M12 1.5L20.217 3.326C20.674 3.428 21 3.833 21 4.302V14.289C21 16.295 19.997 18.169 18.328 19.281L12 23.5L5.672 19.281C4.002 18.168 3 16.295 3 14.29V4.302C3 3.833 3.326 3.428 3.783 3.326L12 1.5ZM12 3.549L5 5.104V14.289C5 15.626 5.668 16.875 6.781 17.617L12 21.097L17.219 17.617C18.332 16.875 19 15.627 19 14.29V5.104L12 3.549Z" fill="#868C95"/>
<g clip-path="url(#clip1_774_33920)">
<path d="M9.5 12V12.5C9.5 13.885 9.832 15.2225 10.4575 16.423L10.571 16.633L11.4445 16.146C10.8645 15.106 10.5395 13.941 10.5035 12.728L10.5 12.5V12H9.5ZM12.5 10.5H11.5V12.5L11.5025 12.6895C11.5403 14.0583 12.0114 15.3799 12.848 16.464L12.9635 16.609L13.7385 15.977C12.9753 15.0449 12.541 13.8871 12.503 12.683L12.5 12.5V10.5ZM12 8.5C11.337 8.5 10.7011 8.7634 10.2322 9.23224C9.76339 9.70108 9.5 10.337 9.5 11H10.5C10.5 10.6022 10.658 10.2206 10.9393 9.93934C11.2206 9.65804 11.6022 9.5 12 9.5C12.3978 9.5 12.7794 9.65804 13.0607 9.93934C13.342 10.2206 13.5 10.6022 13.5 11V12.5C13.5 13.6175 13.91 14.672 14.6355 15.4885L14.7415 15.6035L15.4655 14.9135C14.8805 14.3015 14.5384 13.4974 14.503 12.6515L14.5 12.5V11C14.5 10.337 14.2366 9.70108 13.7678 9.23224C13.2989 8.7634 12.663 8.5 12 8.5ZM12 6.5C10.8065 6.5 9.66193 6.97411 8.81802 7.81802C7.97411 8.66194 7.5 9.80653 7.5 11V12.5C7.5 13.349 7.601 14.185 7.7985 14.995L7.868 15.2645L8.833 15.0015C8.637 14.283 8.5265 13.5405 8.504 12.784L8.5 12.5V11C8.5 10.3504 8.68076 9.71368 9.02206 9.16101C9.36336 8.60833 9.85173 8.16153 10.4325 7.87062C11.0133 7.57971 11.6636 7.45617 12.3106 7.51381C12.9576 7.57145 13.5758 7.80801 14.096 8.197L14.8085 7.484C14.0118 6.84565 13.0209 6.49849 12 6.5ZM15.516 8.1915L14.803 8.904C15.2318 9.47562 15.4745 10.1653 15.498 10.8795L15.5 11L15.498 12C15.498 12.56 15.63 13.1015 15.879 13.5885L15.957 13.7335L16.8255 13.2375C16.6355 12.905 16.5245 12.534 16.5025 12.146L16.498 12V11C16.501 9.97917 16.1544 8.98807 15.516 8.1915Z" fill="#868C95"/>
</g>
</g>
<defs>
<clipPath id="clip0_774_33920">
<rect width="24" height="24" fill="white" transform="translate(0 0.5)"/>
</clipPath>
<clipPath id="clip1_774_33920">
<rect width="12" height="12" fill="white" transform="matrix(-1 0 0 1 18 5.5)"/>
</clipPath>
</defs>
</svg>
