<svg width="71" height="60" viewBox="0 0 71 60" fill="none" xmlns="http://www.w3.org/2000/svg">
<path fill-rule="evenodd" clip-rule="evenodd" d="M24.96 43.21V50.7H57.4L68.61 59.65H70.83V21.83H24.96V41.21H18.74C18.5 41.21 18.27 41.29 18.09 41.45L4.81 52.72H2.5V2.5H59.43V18.88H61.43V1.5C61.43 0.95 60.98 0.5 60.43 0.5H1.5C0.95 0.5 0.5 0.95 0.5 1.5V53.72C0.5 54.27 0.95 54.72 1.5 54.72H5.19C5.43 54.72 5.66 54.64 5.84 54.48L19.12 43.21H24.97H24.96ZM32.32 43.52H48.89V41.52H32.32V43.52ZM32.32 36.83H62.66V34.83H32.32V36.83ZM32.32 30.14H52.22V28.14H32.32V30.14Z" fill="black"/>
</svg>
