<svg width="24" height="25" viewBox="0 0 24 25" fill="none" xmlns="http://www.w3.org/2000/svg">
<path d="M6.382 6.468C7.97575 5.19107 9.95781 4.49674 12 4.5C14.125 4.5 16.078 5.236 17.618 6.468L19.071 5.015L20.485 6.429L19.032 7.882C20.0897 9.20615 20.7521 10.802 20.9428 12.486C21.1336 14.1699 20.845 15.8735 20.1103 17.4007C19.3756 18.9279 18.2246 20.2167 16.7898 21.1186C15.355 22.0205 13.6947 22.499 12 22.499C10.3053 22.499 8.64498 22.0205 7.2102 21.1186C5.77541 20.2167 4.62443 18.9279 3.88973 17.4007C3.15502 15.8735 2.86644 14.1699 3.0572 12.486C3.24796 10.802 3.9103 9.20615 4.96801 7.882L3.51501 6.43L4.92901 5.016L6.382 6.469V6.468ZM12 20.5C12.9193 20.5 13.8295 20.3189 14.6788 19.9672C15.5281 19.6154 16.2997 19.0998 16.9498 18.4497C17.5998 17.7997 18.1154 17.0281 18.4672 16.1788C18.8189 15.3295 19 14.4193 19 13.5C19 12.5807 18.8189 11.6705 18.4672 10.8212C18.1154 9.97194 17.5998 9.20026 16.9498 8.55025C16.2997 7.90024 15.5281 7.38463 14.6788 7.03284C13.8295 6.68106 12.9193 6.5 12 6.5C10.1435 6.5 8.36301 7.2375 7.05026 8.55025C5.7375 9.86301 5.00001 11.6435 5.00001 13.5C5.00001 15.3565 5.7375 17.137 7.05026 18.4497C8.36301 19.7625 10.1435 20.5 12 20.5ZM13 12.5H16L11 19V14.5H8.00001L13 7.995V12.5ZM8.00001 1.5H16V3.5H8.00001V1.5Z" fill="#868C95"/>
</svg>
