<svg width="24" height="24" viewBox="0 0 24 24" fill="none" xmlns="http://www.w3.org/2000/svg">
<path d="M7 10.0006L20 10.0006C20.2652 10.0006 20.5196 10.1059 20.7071 10.2935C20.8946 10.481 21 10.7354 21 11.0006L21 21.0006C21 21.2658 20.8946 21.5201 20.7071 21.7077C20.5196 21.8952 20.2652 22.0006 20 22.0006L4 22.0006C3.73478 22.0006 3.48043 21.8952 3.29289 21.7077C3.10536 21.5201 3 21.2658 3 21.0006L3 11.0006C3 10.7354 3.10536 10.481 3.29289 10.2935C3.48043 10.1059 3.73478 10.0006 4 10.0006H5V9.00058C4.99943 7.42328 5.53158 5.89202 6.51019 4.65501C7.4888 3.418 8.8565 2.54776 10.3916 2.18534C11.9267 1.82292 13.5392 1.98958 14.9677 2.65829C16.3963 3.327 17.5571 4.45857 18.262 5.86958L16.473 6.76358C15.9695 5.7556 15.1403 4.94723 14.1198 4.46953C13.0994 3.99183 11.9475 3.8728 10.8509 4.13176C9.7543 4.39071 8.77733 5.01245 8.07836 5.89619C7.37939 6.77992 6.9994 7.87384 7 9.00058V10.0006ZM5 12.0006L5 20.0006L19 20.0006L19 12.0006L5 12.0006ZM10 15.0006H14V17.0006H10L10 15.0006Z" fill="#868C95"/>
</svg>
