<svg width="146" height="32" fill="none" xmlns="http://www.w3.org/2000/svg"><path fill-rule="evenodd" clip-rule="evenodd" d="M91.377 0H95.08v24.697H91.378V0ZM30.973 21.34V8.375h3.94V5.007h-4.261c.25-.312.451-.661.594-1.035.268-.678.41-1.545.396-2.711V0h-3.567v1.303a4.746 4.746 0 0 1-.438 2.148c-.465.953-1.458 2.006-3.616 2.512l-.23.055v2.357h3.444v13.849c.002.655.264 1.282.728 1.746a2.493 2.493 0 0 0 1.751.728h5.256v-3.36h-3.997Zm30.4-13.062c1.438-2.047 3.348-3.245 5.66-3.245h1.846v3.58h-2.253c-1.578 0-2.846.512-3.744 1.591-.897 1.08-1.434 2.763-1.434 5.16v9.335H57.67V5.033h3.702v3.245Zm80.586-3.245h3.613l.428.014-.157.395-9.433 24.384-.23-.088.028.011.198.077a3.563 3.563 0 0 1-3.2 2.174h-4.182v-3.324h4.053l1.696-4.278-7.394-18.97-.156-.395h4.162l.071.198 5.202 14.488L141.89 5.23l.069-.198Zm-91.793 0h3.737v19.671H50.35v-2.426c-1.403 1.948-3.466 2.87-5.993 2.87-2.572 0-4.33-.752-5.408-2.06-1.078-1.308-1.474-3.134-1.474-5.21V5.032h3.74v13.206c0 1.099.346 1.978.952 2.58.607.603 1.497.96 2.634.96 1.835 0 3.159-.606 4.037-1.602.878-.995 1.328-2.412 1.328-4.078V5.033Zm67.602-.443c-2.796 0-5.101 1.028-6.702 2.846s-2.475 4.387-2.475 7.447c0 3.061.905 5.648 2.532 7.448 1.627 1.8 3.964 2.81 6.756 2.81 2.222 0 4.13-.636 5.622-1.808 1.492-1.172 2.549-2.861 3.1-4.94l.099-.373h-3.851l-.071.197c-.848 2.33-2.594 3.604-4.899 3.604-1.657 0-2.933-.62-3.841-1.66-.858-.988-1.397-2.359-1.595-3.981h14.284l.03-.263c.032-.342.045-.686.038-1.03 0-3.056-.836-5.631-2.396-7.445s-3.835-2.852-6.631-2.852Zm-5.194 8.189c.264-1.383.811-2.583 1.621-3.436a4.753 4.753 0 0 1 3.567-1.467 4.634 4.634 0 0 1 3.409 1.374c.812.828 1.387 2.023 1.672 3.529h-10.269ZM81.126 4.59c-2.527 0-4.59.921-5.993 2.87V5.033H71.58v19.665h3.738V13.633c0-1.666.45-3.083 1.327-4.08.878-.999 2.202-1.601 4.037-1.601 1.138 0 2.028.357 2.634.96.606.603.953 1.482.953 2.58v13.209h3.74V11.856c0-2.075-.397-3.9-1.475-5.209-1.078-1.308-2.836-2.057-5.408-2.057Zm28.581.494-9.817 9.793 9.81 9.788-4.954-.01-7.166-7.15a3.712 3.712 0 0 1 0-5.254l7.184-7.167h4.943Z" fill="#050A0B"/><g clip-path="url('#clip0_1151_3277')" fill="#050A0B"><path d="m8.023 11.354 6.518 14.253H0l6.518-14.253a.828.828 0 0 1 1.505 0ZM7.27 9.145a4.576 4.576 0 0 0 4.579-4.572A4.576 4.576 0 0 0 7.269 0a4.576 4.576 0 0 0-4.578 4.573A4.576 4.576 0 0 0 7.27 9.145Z"/></g><defs><clipPath id="clip0_1151_3277"><path fill="#fff" d="M0 0h14.54v25.607H0z"/></clipPath></defs></svg>