<svg xmlns="http://www.w3.org/2000/svg" width="24" height="24" fill="currentColor" viewBox="0 0 24 24">
    <path d="M18.32 13L12.57 18.75C12.2107 19.1078 11.7883 19.1078 11.43 18.75L5.68 13C5.31875 12.6375 5.31875 12.2125 5.68 11.85C6.04125 11.4875 6.465 11.4875 6.83 11.85L10.75 15.77V1.5C10.75 1.085 11.085 0.75 11.5 0.75H12.5C12.915 0.75 13.25 1.085 13.25 1.5V15.77L17.17 11.85C17.5313 11.4875 17.9563 11.4875 18.32 11.85C18.6813 12.2125 18.6813 12.6375 18.32 13Z"/>
    <rect x="3" y="20" width="18" height="2" rx="1.5" ry="1.5"/>
</svg>
