<svg width="333" height="80" viewBox="0 0 333 80" xmlns="http://www.w3.org/2000/svg">
<path d="M299.822 17.8057L311.662 50.4043L323.57 17.8057L323.728 17.3613H331.951L332.925 17.3926L332.568 18.2812L311.099 73.1465L310.575 72.9463L310.639 72.9727L311.09 73.1465C310.482 74.5665 309.471 75.7828 308.179 76.6504C306.886 77.518 305.368 77.9998 303.805 78.0371H294.288V70.5586H303.512L307.373 60.9326L290.544 18.251L290.188 17.3613H299.659L299.822 17.8057ZM94.418 47.0742C94.418 49.5461 95.2069 51.5248 96.5869 52.8809C97.9671 54.2369 99.993 55.042 102.582 55.042C106.758 55.0419 109.771 53.6771 111.77 51.4365C113.768 49.1958 114.792 46.0077 114.792 42.2598V17.3613H123.299V61.6221H115.211V56.1621C112.017 60.5459 107.322 62.6182 101.571 62.6182C95.7166 62.6181 91.7154 60.9286 89.2617 57.9854C86.808 55.042 85.9062 50.9335 85.9062 46.2607V17.3613H94.418V47.0742ZM268.654 16.3672C275.019 16.3673 280.196 18.7018 283.746 22.7832C287.296 26.8647 289.199 32.6581 289.199 39.5361C289.215 40.3091 289.187 41.0827 289.114 41.8525L289.046 42.4434H256.534C256.985 46.0936 258.212 49.1793 260.165 51.4023C262.231 53.7409 265.136 55.1366 268.906 55.1367C274.152 55.1367 278.126 52.2693 280.057 47.0273L280.219 46.583H288.983L288.758 47.4229C287.504 52.1001 285.099 55.9016 281.703 58.5381C278.307 61.1746 273.963 62.6064 268.906 62.6064C262.551 62.6064 257.233 60.3344 253.53 56.2842C249.827 52.2338 247.766 46.4134 247.766 39.5264C247.766 32.6396 249.755 26.8598 253.399 22.7695C257.044 18.6792 262.29 16.3672 268.654 16.3672ZM185.259 16.3672C191.113 16.3672 195.115 18.0519 197.568 20.9951C200.022 23.9384 200.924 28.0474 200.924 32.7158V61.6152H192.412V31.8975C192.412 29.4256 191.623 27.4469 190.243 26.0908C188.863 24.7348 186.837 23.9297 184.248 23.9297C180.072 23.9297 177.059 25.2861 175.061 27.5312C173.062 29.7765 172.038 32.9648 172.038 36.7129V61.6104H163.531V17.3633H171.619V22.8232C174.813 18.4394 179.508 16.3672 185.259 16.3672ZM72.6211 8.87598C72.6526 11.4989 72.3276 13.4507 71.7188 14.9756C71.393 15.8166 70.9361 16.603 70.3652 17.3057H80.0635V24.8857H71.0967V54.0527H80.1943V61.6104H68.2324C66.737 61.6045 65.3041 61.0164 64.2471 59.9736C63.19 58.9309 62.5936 57.5181 62.5889 56.0439V24.8857H54.75V19.582L55.2734 19.457C60.185 18.3189 62.4449 15.9495 63.5049 13.8066C64.2142 12.2942 64.5557 10.639 64.502 8.97363V6.03906H72.6211V8.87598ZM140.301 24.6621C143.575 20.056 147.923 17.3614 153.183 17.3613H157.387V25.418H152.258C148.668 25.418 145.781 26.5696 143.737 28.9971C141.694 31.4246 140.472 35.2127 140.472 40.6055V61.6084H131.875V17.3613H140.301V24.6621ZM217.02 61.6064H208.594V6.03906H217.02V61.6064ZM250.304 17.4746L227.96 39.5098L250.288 61.5332L239.013 61.5098L222.7 45.4229C221.111 43.8549 220.219 41.7285 220.219 39.5117C220.219 37.2949 221.111 35.1685 222.7 33.6006L239.053 17.4746H250.304ZM268.641 23.7607C267.129 23.721 265.625 23.9943 264.227 24.5625C262.828 25.1307 261.566 25.9812 260.521 27.0596C258.677 28.9803 257.432 31.6797 256.832 34.792H280.206C279.557 31.4041 278.248 28.7135 276.398 26.8506C275.389 25.8402 274.179 25.0451 272.845 24.5137C271.51 23.9822 270.079 23.7255 268.641 23.7607Z" fill="currentColor"></path>
<path d="M17.1416 30.5C17.5022 30.5 17.8556 30.6019 18.1592 30.7939C18.4628 30.986 18.7039 31.2606 18.8545 31.584L33.6904 63.6514H0.59375L15.4287 31.584C15.5793 31.2606 15.8214 30.986 16.125 30.7939C16.4284 30.6021 16.7812 30.5001 17.1416 30.5ZM17.1406 6.03711C22.8965 6.03711 27.5633 10.6432 27.5635 16.3252C27.5635 22.0073 22.8967 26.6143 17.1406 26.6143C11.3848 26.6141 6.71875 22.0072 6.71875 16.3252C6.71894 10.6433 11.3849 6.0373 17.1406 6.03711Z" fill="currentColor"></path>
</svg>