<svg width="382" height="48" viewBox="0 0 382 48" fill="none" xmlns="http://www.w3.org/2000/svg">
<path d="M12.44 39.4C5.84 39.4 1.64 36.2 1.44 30H5.44C5.44 33.8 8.4 35.8 12.6 35.8H13C16.76 35.8 18.8 33.92 18.8 31.6C18.8 29.32 17.36 28 14.4 27.4L9.92 26.48C5.44 25.56 2.84 23.04 2.84 18.6C2.84 14.2 6.8 10.6 12.84 10.6C19.04 10.6 23 14 23.2 19.4H19.2C19 16.2 16.44 14.2 13.04 14.2H12.64C9.16 14.2 6.84 16.08 6.84 18.56C6.84 20.72 8.32 22 10.68 22.48L15.16 23.36C20 24.32 22.8 26.88 22.8 31.44C22.8 36.36 18.64 39.4 12.44 39.4ZM34.2791 39.4C29.3191 39.4 24.8391 35.96 24.8391 28.96C24.8391 22.04 29.4391 18.6 34.1591 18.6C39.3591 18.6 42.6391 22.2 42.6391 27.4C42.6391 28.12 42.6391 28.88 42.6391 29.6H28.6391C28.8791 34.2 31.7991 36.2 34.2391 36.2H34.5591C36.5191 36.2 38.3991 35.2 38.7991 33.08H42.5991C41.8791 37.12 38.3991 39.4 34.2791 39.4ZM28.8791 26.6H38.8391C38.6791 23.08 36.5991 21.8 34.3191 21.8H33.9991C31.9191 21.8 29.5991 23.04 28.8791 26.6ZM53.9625 39.4C47.8025 39.4 44.3625 34.88 44.3625 29C44.3625 23.12 47.8025 18.6 53.9625 18.6C58.5225 18.6 61.7625 21.28 62.1625 25.6H58.3625C58.0025 23.4 56.4025 21.8 54.1225 21.8H53.8025C49.9625 21.8 48.1625 25.2 48.1625 29C48.1625 32.8 49.9625 36.2 53.8025 36.2H54.1225C56.4025 36.2 58.0025 34.6 58.3625 32.4H62.1625C61.7625 36.72 58.5225 39.4 53.9625 39.4ZM71.4516 39.4C66.9716 39.4 64.6516 36.4 64.6516 32.2V19H68.4516V31.4C68.4516 34.6 69.7716 36.2 72.4916 36.2H72.8116C75.3716 36.2 77.8516 33.8 77.8516 29.8V19H81.6516V39H77.8516V35.2C77.0916 37.36 74.9316 39.4 71.4516 39.4ZM85.6641 39V19H89.2641V23.4C90.0641 20.4 92.4641 18.8 95.0641 18.8H96.8641V22.48H95.2641C91.6641 22.48 89.4641 24.88 89.4641 28.88V39H85.6641ZM106.318 39.4C101.358 39.4 96.8781 35.96 96.8781 28.96C96.8781 22.04 101.478 18.6 106.198 18.6C111.398 18.6 114.678 22.2 114.678 27.4C114.678 28.12 114.678 28.88 114.678 29.6H100.678C100.918 34.2 103.838 36.2 106.278 36.2H106.598C108.558 36.2 110.438 35.2 110.838 33.08H114.638C113.918 37.12 110.438 39.4 106.318 39.4ZM100.918 26.6H110.878C110.718 23.08 108.638 21.8 106.358 21.8H106.038C103.958 21.8 101.638 23.04 100.918 26.6ZM125.042 39.4C120.042 39.4 116.442 35.6 116.442 29C116.442 22.4 120.442 18.6 125.442 18.6C128.242 18.6 130.642 20 131.642 21.8V11H135.442V39H131.642V36.2C130.642 38 127.842 39.4 125.042 39.4ZM126.002 36.2C128.842 36.2 131.642 33.8 131.642 29C131.642 24.2 128.842 21.8 126.002 21.8H125.682C122.642 21.8 120.242 24.2 120.242 29C120.242 33.8 122.642 36.2 125.682 36.2H126.002ZM157.595 39.4C154.795 39.4 151.995 38 150.995 36.2V39H147.195V11H150.995V21.8C151.995 20 154.395 18.6 157.195 18.6C162.195 18.6 166.195 22.4 166.195 29C166.195 35.6 162.595 39.4 157.595 39.4ZM156.955 36.2C159.995 36.2 162.395 33.8 162.395 29C162.395 24.2 159.995 21.8 156.955 21.8H156.635C153.795 21.8 150.995 24.2 150.995 29C150.995 33.8 153.795 36.2 156.635 36.2H156.955ZM167.555 46.4V43H173.155C174.355 43 174.755 42.6 174.755 41.4V38.56L166.355 19H170.395L176.635 33.76L182.635 19H186.555L178.355 38.52V42.2C178.355 45 176.955 46.4 174.155 46.4H167.555Z" fill="#111111" style="fill:#111111;fill:color(display-p3 0.0667 0.0667 0.0667);fill-opacity:1;"/>
<path d="M363.746 15.2968L370.167 32.9749L376.627 15.2968L376.715 15.0543H381.172L381.701 15.0688L381.507 15.5538L369.862 45.3083L369.58 45.2016L369.614 45.2162L369.862 45.3083C369.532 46.0794 368.984 46.739 368.281 47.2095C367.577 47.6799 366.758 47.9418 365.909 47.9612H360.749V43.9067H365.754L367.849 38.6881L358.721 15.5393L358.527 15.0591H363.664L363.751 15.3016L363.746 15.2968ZM252.347 31.1707C252.347 32.5093 252.774 33.586 253.526 34.3183C254.273 35.0555 255.374 35.492 256.775 35.492C259.04 35.492 260.675 34.75 261.756 33.5375C262.843 32.3201 263.396 30.5935 263.396 28.5614V15.0591H268.008V39.0664H263.624V36.1031C261.892 38.4796 259.346 39.6048 256.227 39.6048C253.109 39.6048 250.883 38.6881 249.549 37.0925C248.22 35.4968 247.73 33.2659 247.73 30.7342V15.0543H252.347V31.1707ZM346.849 14.5159C350.302 14.5159 353.11 15.7818 355.035 17.9934C356.961 20.2049 357.994 23.3477 357.994 27.0773C358.004 27.4944 357.989 27.9164 357.945 28.3335L357.907 28.6536H340.272C340.515 30.6323 341.184 32.3056 342.241 33.5132C343.362 34.7839 344.938 35.5405 346.985 35.5405C349.831 35.5405 351.985 33.9837 353.032 31.1416L353.12 30.8991H357.873L357.751 31.355C357.072 33.8915 355.768 35.9527 353.925 37.3835C352.082 38.8142 349.725 39.5902 346.985 39.5902C343.536 39.5902 340.655 38.3583 338.647 36.1613C336.64 33.9643 335.519 30.8069 335.519 27.0725C335.519 23.338 336.601 20.2001 338.575 17.9837C340.553 15.7672 343.396 14.5111 346.849 14.5111V14.5159ZM301.613 14.5159C304.79 14.5159 306.958 15.4277 308.292 17.0282C309.62 18.6239 310.11 20.8548 310.11 23.3865V39.0616H305.493V22.9452C305.493 21.6066 305.066 20.5299 304.315 19.7975C303.568 19.0604 302.467 18.6239 301.065 18.6239C298.8 18.6239 297.166 19.361 296.084 20.5784C294.998 21.7957 294.445 23.5272 294.445 25.5593V39.0616H289.833V15.0543H294.217V18.0176C295.948 15.6411 298.495 14.5159 301.613 14.5159ZM240.528 10.4517C240.547 11.8727 240.368 12.9349 240.038 13.7594C239.864 14.2152 239.611 14.642 239.306 15.0252H244.563V19.1379H239.699V34.9585H244.631V39.0567H238.142C237.332 39.0567 236.556 38.7366 235.979 38.1692C235.406 37.6017 235.082 36.8354 235.082 36.04V19.1428H230.828V16.2668L231.109 16.1989C233.772 15.5829 234.999 14.2977 235.576 13.1337C235.959 12.3141 236.149 11.4168 236.119 10.5147V8.92395H240.523V10.4614L240.528 10.4517ZM277.232 19.0167C279.008 16.519 281.365 15.0591 284.221 15.0591H286.501V19.4289H283.717C281.772 19.4289 280.206 20.0546 279.095 21.3689C277.989 22.6833 277.325 24.7396 277.325 27.6642V39.0567H272.664V15.0543H277.232V19.0119V19.0167ZM318.84 39.0519H314.272V8.91425H318.84V39.0519ZM336.897 15.1173L324.777 27.0676L336.887 39.0131L330.771 38.9985L321.925 30.2734C321.062 29.4247 320.577 28.2704 320.577 27.0676C320.577 25.8648 321.062 24.7105 321.925 23.8618L330.795 15.1173H336.897ZM346.839 18.5269C346.019 18.5075 345.205 18.653 344.443 18.9634C343.687 19.2737 343.003 19.7345 342.435 20.3165C341.436 21.3592 340.757 22.8239 340.432 24.5117H353.11C352.756 22.6736 352.048 21.2137 351.044 20.2049C350.496 19.6569 349.841 19.2252 349.114 18.9391C348.391 18.653 347.615 18.5123 346.834 18.5317L346.839 18.5269Z" fill="black" style="fill:black;fill-opacity:1;"/>
<path d="M210.711 21.6405C210.9 21.6405 211.084 21.6938 211.244 21.7957C211.404 21.8975 211.53 22.043 211.608 22.2128L219.416 39.0906H202L209.808 22.2128C209.886 22.043 210.017 21.8975 210.177 21.7957C210.337 21.6938 210.521 21.6405 210.711 21.6405ZM210.706 8.76385C213.737 8.76385 216.191 11.1888 216.191 14.1764C216.191 17.1688 213.737 19.5938 210.706 19.5938C207.674 19.5938 205.22 17.1688 205.22 14.1764C205.22 11.184 207.674 8.76385 210.706 8.76385Z" fill="black" style="fill:black;fill-opacity:1;"/>
</svg>
