<svg
  width="146"
  height="32"
  viewBox="0 0 146 32"
  fill="none"
  xmlns="http://www.w3.org/2000/svg"
>
  <path
    fill-rule="evenodd"
    clip-rule="evenodd"
    d="M91.3775 0H91.6748H94.7821H95.0794V0.296406V15.9901V19.7525V24.4001V24.6965H94.7821H91.6748H91.3775V24.4001V0.296406V0ZM30.9727 21.3393V8.37649H34.9123V5.00733H30.6516C30.9024 4.69502 31.103 4.3457 31.2461 3.97189C31.5137 3.29411 31.6563 2.42663 31.6425 1.26077V8.17776e-05H28.0754V1.30424C28.099 2.04445 27.9491 2.77995 27.6374 3.45219C27.1717 4.40464 26.1789 5.45786 24.0208 5.96373L23.7909 6.01906V8.37649H27.2351V22.2246C27.2372 22.8797 27.499 23.5075 27.9634 23.9709C28.4279 24.4344 29.0572 24.696 29.7143 24.6986H34.9698V21.3393H30.9746H30.9727ZM61.3723 8.27768C62.811 6.23051 64.7214 5.03302 67.0321 5.03302H68.879V8.6136H66.6258C65.0483 8.6136 63.7801 9.1254 62.8823 10.2043C61.9846 11.2832 61.4476 12.9668 61.4476 15.3638V24.6986H57.6704V5.03302H61.3723V8.27768ZM141.959 5.03302H145.572L146 5.04684L145.843 5.44205L136.41 29.8264L136.18 29.7375L136.208 29.7493L136.406 29.8264C136.139 30.4575 135.695 30.9983 135.128 31.3839C134.56 31.7695 133.892 31.9834 133.206 32H129.024V28.6763H133.077L134.773 24.3982L127.379 5.42823L127.223 5.03302H131.385L131.456 5.23062L136.658 19.7189L141.89 5.23062L141.959 5.03302ZM50.1656 5.03302H50.4629H53.9032V24.7045H50.3499V22.2779C48.9469 24.2263 46.8839 25.1471 44.3572 25.1471C41.7849 25.1471 40.0271 24.3962 38.9491 23.0881C37.871 21.7799 37.4747 19.9541 37.4747 17.8773V5.03302H41.2142V18.2389C41.2142 19.3376 41.561 20.2169 42.1674 20.8196C42.7738 21.4223 43.6636 21.7799 44.8011 21.7799C46.6362 21.7799 47.96 21.1733 48.8379 20.1774C49.7158 19.1815 50.1656 17.7646 50.1656 16.0988V5.03302ZM117.768 4.59031C114.972 4.59031 112.667 5.61786 111.066 7.43581C109.465 9.25377 108.591 11.8226 108.591 14.8835C108.591 17.9444 109.496 20.531 111.123 22.3312C112.75 24.1314 115.087 25.1411 117.879 25.1411C120.101 25.1411 122.009 24.5048 123.501 23.333C124.993 22.1612 126.05 20.4717 126.601 18.3929L126.7 18.0195H122.849L122.778 18.2171C121.93 20.5468 120.184 21.8214 117.879 21.8214C116.222 21.8214 114.946 21.2009 114.038 20.1615C113.18 19.1735 112.641 17.8021 112.443 16.1798H126.727L126.757 15.917C126.789 15.5748 126.802 15.2311 126.795 14.8874C126.795 11.8305 125.959 9.25573 124.399 7.44172C122.839 5.62772 120.564 4.59031 117.768 4.59031ZM112.574 12.779C112.838 11.3958 113.385 10.1963 114.195 9.3427C114.654 8.86337 115.208 8.48524 115.823 8.23269C116.437 7.98015 117.098 7.85881 117.762 7.87647C118.394 7.86079 119.023 7.97457 119.609 8.21079C120.195 8.44701 120.727 8.80063 121.171 9.2498C121.983 10.0778 122.558 11.2733 122.843 12.779H112.574ZM81.1261 4.59031C78.5994 4.59031 76.5364 5.51115 75.1334 7.45953V5.03294H71.5801V24.6985H75.3177V13.6327C75.3177 11.9669 75.7675 10.55 76.6454 9.55214C77.5233 8.55424 78.8471 7.95156 80.6822 7.95156C81.8197 7.95156 82.7095 8.30922 83.3159 8.91191C83.9223 9.5146 84.2691 10.3939 84.2691 11.4926V24.7005H88.0086V11.8562C88.0086 9.78137 87.6123 7.95551 86.5342 6.64738C85.4562 5.33924 83.6984 4.59031 81.1261 4.59031ZM109.707 5.08369L99.8904 14.8771L109.7 24.6653L104.746 24.6549L97.5796 17.5051C96.8814 16.8082 96.4892 15.8633 96.4892 14.878C96.4892 13.8927 96.8814 12.9478 97.5796 12.2509L104.764 5.08369H109.707Z"
    fill="#050A0B"
  />
  <g clip-path="url(#clip0_1151_3277)">
    <path
      d="M8.02301 11.3544L14.541 25.6069H0L6.51796 11.3544C6.58413 11.2107 6.69019 11.0889 6.82358 11.0035C6.95696 10.9182 7.11206 10.8728 7.27048 10.8728C7.42891 10.8728 7.58401 10.9182 7.71739 11.0035C7.85077 11.0889 7.95684 11.2107 8.02301 11.3544Z"
      fill="#050A0B"
    />
    <path
      d="M7.26983 9.14528C9.79876 9.14528 11.8489 7.09804 11.8489 4.57264C11.8489 2.04724 9.79876 0 7.26983 0C4.7409 0 2.6908 2.04724 2.6908 4.57264C2.6908 7.09804 4.7409 9.14528 7.26983 9.14528Z"
      fill="#050A0B"
    />
  </g>
  <defs>
    <clipPath id="clip0_1151_3277">
      <rect width="14.5397" height="25.6068" fill="white" />
    </clipPath>
  </defs>
</svg>
